<?xml version="1.0" encoding="UTF-8"?>
<svg width="70px" height="45px" viewBox="0 0 70 45" version="1.1" xmlns="http://www.w3.org/2000/svg" xmlns:xlink="http://www.w3.org/1999/xlink">
    <!-- Generator: Sketch 44.1 (41455) - http://www.bohemiancoding.com/sketch -->
    <title>visa-debit</title>
    <desc>Created with Sketch.</desc>
    <defs></defs>
    <g id="Figurehead" stroke="none" stroke-width="1" fill="none" fill-rule="evenodd">
        <g id="acceptance-logos" transform="translate(-49.000000, -114.000000)" fill-rule="nonzero">
            <g id="visa-debit" transform="translate(49.000000, 114.000000)">
                <g id="Group">
                    <polygon id="path4147" fill="#FFFFFF" points="70 44.4675 0 44.4675 0 0 70 7.5642e-07 70 44.4675008"></polygon>
                    <polygon id="path4149" fill="#F7B600" points="1.165395 37.24 68.830895 37.24 68.830895 43.30725 1.165395 43.30725"></polygon>
                    <polygon id="path4151" fill="#1A1F71" points="1.165395 7.2331 68.830895 7.2331 68.830895 1.16655 1.165395 1.16655"></polygon>
                </g>
                <g id="g4161" transform="translate(33.977975, 20.650450) scale(-1, 1) rotate(-180.000000) translate(-33.977975, -20.650450) translate(8.376011, 12.386525)" fill="#1A1F71">
                    <path d="M25.277889,16.203775 L21.886763,0.350973766 L17.7852634,0.350973766 L21.1763895,16.203775 L25.277889,16.203775 Z M42.5316686,5.96752626 L44.6913078,11.9207932 L45.9318688,5.96752626 L42.5316686,5.96752626 Z M47.1098832,0.350973766 L50.9018906,0.350973766 L47.5888668,16.203775 L44.0901477,16.203775 C43.3010239,16.203775 42.6379654,15.7458563 42.3437048,15.0416403 L36.1895111,0.350973766 L40.4964745,0.350973766 L41.3507375,2.71899344 L46.6127514,2.71899344 L47.1098832,0.350973766 Z M36.4034009,5.52678358 C36.4205769,9.70995013 30.6193014,9.94198819 30.6572182,11.8112557 C30.6711535,12.37936 31.2123596,12.984409 32.3971796,13.138993 C32.9840803,13.2148267 34.60543,13.2754288 36.4419659,12.4292677 L37.1604413,15.7928473 C36.1736314,16.1496544 34.9039036,16.4931744 33.3243596,16.4931744 C29.269851,16.4931744 26.4176625,14.3396927 26.3949772,11.2535217 C26.3684031,8.97073392 28.4321158,7.6984135 29.9841134,6.93813238 C31.5827779,6.16164748 32.1187987,5.66257121 32.111345,4.96872557 C32.1000024,3.90510977 30.8348116,3.43422807 29.6584175,3.416728 C27.595677,3.38399637 26.3998384,3.97413786 25.4460842,4.41844537 L24.7016828,0.943383781 C25.6612703,0.503613327 27.4297503,0.121528313 29.261425,0.102083782 C33.5716292,0.102083782 36.390762,2.23093574 36.4034009,5.52678358 L36.4034009,5.52678358 Z M19.4169836,16.203775 L12.7721395,0.350973766 L8.43665749,0.350973766 L5.16641162,13.0028813 C4.96840149,13.7803384 4.79599332,14.0664971 4.19256474,14.3951096 C3.206403,14.9308064 1.57792361,15.4318272 0.146482126,15.7435878 L0.243056625,16.203775 L7.22267067,16.203775 C8.11096161,16.203775 8.91077995,15.6123372 9.11397529,14.5882586 L10.8419459,5.4140053 L15.1077517,16.203775 L19.4169836,16.203775 Z" id="path4163"></path>
                </g>
                <g id="text4160" transform="translate(43.805930, 30.362528)" fill="#1A1F71">
                    <path d="M0.789943,4.14158528 C0.866093505,4.15434436 0.953442051,4.16285042 1.05198864,4.16710345 C1.15501635,4.17135648 1.26476337,4.17348299 1.3812297,4.17348299 C2.00834869,4.17348299 2.48541442,4.01600723 2.81242688,3.7010557 C3.14391569,3.38185115 3.30966009,2.93072311 3.30966009,2.3476716 C3.30966009,2.09230796 3.27158484,1.86248523 3.19543434,1.65820341 C3.12376257,1.45391704 3.01177618,1.28154431 2.85947517,1.14108521 C2.70717416,0.996382177 2.51455972,0.885727252 2.28163186,0.809120433 C2.05318035,0.728256037 1.78440823,0.687823839 1.4753155,0.687823839 C1.32301449,0.687823839 1.18862843,0.69420793 1.07215732,0.706976113 C0.960172126,0.715488992 0.866104277,0.728257174 0.789953772,0.745280659 L0.789953772,4.14155116 L0.789943,4.14158528 Z M0.20538518,0.336717024 C0.384563403,0.31118066 0.577177837,0.289900735 0.783228485,0.27287725 C0.993762657,0.255853765 1.21549726,0.247342023 1.4484323,0.247342023 C1.86949586,0.247342023 2.23009287,0.292029524 2.53022334,0.381404524 C2.8303538,0.470779525 3.08119661,0.60484089 3.28275176,0.783588617 C3.48432846,0.962338619 3.64110821,1.17726438 3.75309101,1.4283659 C3.86507859,1.67947651 3.92107238,1.9795197 3.92107238,2.32849545 C3.92107238,2.68174697 3.86507859,2.99881364 3.75309101,3.27969546 C3.64558455,3.56060001 3.48432846,3.80106669 3.26932273,4.00109547 C3.05430982,4.20538412 2.77658501,4.36072199 2.43614831,4.46710911 C2.10018315,4.56925229 1.71047794,4.62032388 1.26703267,4.62032388 C1.05649849,4.62032388 0.863884059,4.61607085 0.689189361,4.6075648 C0.51449227,4.59905874 0.353236178,4.5862917 0.205421087,4.56926366 L0.205421087,0.336590798 L0.20538518,0.336717024 Z" id="path4266"></path>
                    <path d="M6.750422,2.73672134 C6.750422,2.64734634 6.73921917,2.54945846 6.71681352,2.4430577 C6.69440786,2.33665922 6.65185267,2.23877134 6.58914796,2.14939406 C6.53091479,2.05576376 6.44804499,1.9791558 6.34053853,1.91957019 C6.23303208,1.85573156 6.09640784,1.82381224 5.93066583,1.82381224 C5.78284356,1.82381224 5.65293384,1.85360391 5.54093668,1.91318724 C5.43343023,1.97277057 5.34160175,2.04724974 5.26545124,2.13662474 C5.19377947,2.22599974 5.13778568,2.32388762 5.09746986,2.43028838 C5.06163518,2.53668687 5.03699853,2.63883005 5.02355992,2.73671793 L6.75037532,2.73671793 L6.750422,2.73672134 Z M5.01689209,3.13890544 C5.02136843,3.33042362 5.05272438,3.49427893 5.11095994,3.63047135 C5.17367183,3.7624062 5.25430108,3.87306227 5.35284766,3.96243954 C5.45587538,4.04755697 5.57458107,4.1113956 5.70896474,4.15395545 C5.84334841,4.19226 5.98444898,4.21141227 6.13226647,4.21141227 C6.34727938,4.21141227 6.52197647,4.19651644 6.65635774,4.16672477 C6.79522015,4.1369331 6.92064155,4.09862969 7.03262196,4.05181454 L7.1334115,4.45399864 C7.03038378,4.50081606 6.88928321,4.5455047 6.71010977,4.58806455 C6.53093155,4.6306244 6.31143512,4.65190432 6.05162047,4.65190432 C5.80077766,4.65190432 5.57680488,4.61572856 5.37970213,4.54337705 C5.18260657,4.46676795 5.01462399,4.36036833 4.87575441,4.22417818 C4.736892,4.08373045 4.63162492,3.91774863 4.55995315,3.72623272 C4.48828377,3.53471454 4.45244909,3.32191529 4.45244909,3.08783498 C4.45244909,2.85375467 4.48604441,2.6367024 4.55323504,2.43667816 C4.62490681,2.23239179 4.72569516,2.05576603 4.85560009,1.90680087 C4.98998136,1.75784254 5.15123745,1.64080466 5.33936836,1.55568724 C5.52750406,1.46631223 5.74027401,1.42162473 5.97767821,1.42162473 C6.24197399,1.42162473 6.46147043,1.47056867 6.63616752,1.56845655 C6.810867,1.66634444 6.94749123,1.78977323 7.04604021,1.93874294 C7.14906793,2.08344597 7.2207397,2.24092173 7.26105552,2.41117022 C7.30136894,2.58140962 7.32152565,2.7367475 7.32152565,2.87718386 C7.32152565,2.93676719 7.31928748,2.98783878 7.31481114,3.03039863 C7.3103348,3.07295848 7.30585845,3.10913424 7.30138211,3.13892591 L5.01686695,3.13892591 L5.01689209,3.13890544 Z" id="path4268"></path>
                    <path d="M8.64269455,3.3432896 C8.64269455,3.37733657 8.64493272,3.41138468 8.64940907,3.44543392 C8.65388541,3.47948089 8.66059992,3.513529 8.66955261,3.54757824 C8.72778577,3.743354 8.83529223,3.90295628 8.99207198,4.02638507 C9.15333286,4.14555174 9.34147095,4.20513507 9.55648625,4.20513507 C9.70878726,4.20513507 9.84541149,4.17747106 9.96635895,4.12214303 C10.0917851,4.06255969 10.1970522,3.98169643 10.2821602,3.87955325 C10.3672706,3.77315249 10.432223,3.64759718 10.4770176,3.50288733 C10.5218122,3.3581843 10.5442094,3.1964555 10.5442094,3.01770095 C10.5442094,2.86448504 10.5218122,2.71765322 10.4770176,2.57720549 C10.4367018,2.43675776 10.3762293,2.31546685 10.2956,2.21333277 C10.2149684,2.10693428 10.11418,2.02394337 9.99323496,1.96436004 C9.8722899,1.90051913 9.7334275,1.86859867 9.57664775,1.86859867 C9.37507345,1.86859867 9.18917353,1.9303108 9.01894799,2.05373504 C8.85321077,2.17290171 8.73898501,2.34101004 8.67627072,2.55806004 C8.66731803,2.59210701 8.65836534,2.62828277 8.64941266,2.66658732 C8.64493631,2.70063429 8.64269814,2.74106648 8.64269814,2.78788391 L8.64269814,3.34327937 L8.64269455,3.3432896 Z M8.05813673,0.0491600032 L8.64269455,0.0491600032 L8.64269455,1.98987139 L8.65612358,1.98987139 C8.7591513,1.81537669 8.90249005,1.67706229 9.08613982,1.57492821 C9.27427792,1.47278502 9.50048887,1.42171343 9.76477267,1.42171343 C9.96634937,1.42171343 10.1500111,1.46001684 10.3157579,1.53662366 C10.4859763,1.61323048 10.6315532,1.72175775 10.7524887,1.86220548 C10.8734337,1.99839791 10.9675016,2.16437973 11.0346922,2.36015094 C11.1018853,2.55166913 11.1354818,2.76446837 11.1354818,2.99854868 C11.1354818,3.27517747 11.0929266,3.51777065 11.0078162,3.72632824 C10.927187,3.93061461 10.8174411,4.10298734 10.6785787,4.24344644 C10.5397139,4.3796366 10.3829342,4.48177978 10.2082395,4.54987599 C10.03354,4.61797221 9.85660475,4.65202031 9.6774337,4.65202031 C9.44002471,4.65202031 9.22949294,4.60733168 9.04583837,4.5179544 C8.86218141,4.4243241 8.70987801,4.27536576 8.58892816,4.0710794 L8.56878461,4.0710794 L8.54189064,4.58178394 L8.0312284,4.58178394 C8.04018109,4.47538545 8.0468956,4.34983015 8.05137195,4.20511802 C8.05584829,4.06041498 8.05808646,3.91996271 8.05808646,3.78376118 L8.05808646,0.0491702378 L8.05813673,0.0491600032 Z" id="path4270"></path>
                    <path d="M12.1758941,0.272580448 C12.2878793,0.272580448 12.3752279,0.306628555 12.4379398,0.374724768 C12.5051328,0.442820982 12.5387293,0.525813029 12.5387293,0.623700909 C12.5432057,0.72158879 12.5096092,0.8045797 12.4379398,0.872673639 C12.3707492,0.93651455 12.2789207,0.968435005 12.1624543,0.968435005 C12.0594266,0.968435005 11.9743175,0.93651455 11.9071268,0.872673639 C11.8399338,0.804577425 11.8063373,0.721586516 11.8063373,0.623700909 C11.8063373,0.525813029 11.8399338,0.442820982 11.9071268,0.374724768 C11.9787986,0.306628555 12.0683877,0.272580448 12.1758941,0.272580448 Z M11.8802508,4.58167136 L11.8802508,1.49182358 L12.4715231,1.49182358 L12.4715231,4.58167136 L11.8802508,4.58167136 Z" id="path4272"></path>
                    <path d="M14.1651142,0.751216704 L14.1651142,1.49175535 L15.0117177,1.49175535 L15.0117177,1.91949173 L14.1651142,1.91949173 L14.1651142,3.58571221 C14.1651142,3.7772304 14.1964702,3.92618873 14.2591821,4.03258722 C14.3263751,4.1347304 14.4428415,4.18580199 14.6085811,4.18580199 C14.6892103,4.18580199 14.7541616,4.18367548 14.8034349,4.17942245 C14.8571893,4.17091639 14.9064638,4.16027245 14.9512583,4.14749062 L14.9781164,4.56884746 C14.9198832,4.59013534 14.8459721,4.60928648 14.756383,4.62630086 C14.671275,4.64333572 14.5704879,4.65185315 14.4540215,4.65185315 C14.1762967,4.65185315 13.9635268,4.57098875 13.8157117,4.40925996 C13.7306013,4.32414026 13.6701288,4.21561299 13.6342941,4.08367814 C13.6029381,3.94748799 13.5872602,3.78788571 13.5872602,3.60487131 L13.5872602,1.9195122 L13.0833124,1.9195122 L13.0833124,1.49177582 L13.5872602,1.49177582 L13.5872602,0.923587164 L14.1651035,0.751220116 L14.1651142,0.751216704 Z" id="path4274"></path>
                </g>
            </g>
        </g>
    </g>
</svg>