<?xml version="1.0" encoding="UTF-8" standalone="no"?>
<svg
   viewBox="0 0 162 100"
   version="1.1"
   id="svg6"
   sodipodi:docname="visa.svg"
   width="162"
   height="100"
   inkscape:version="1.2.2 (b0a84865, 2022-12-01)"
   xmlns:inkscape="http://www.inkscape.org/namespaces/inkscape"
   xmlns:sodipodi="http://sodipodi.sourceforge.net/DTD/sodipodi-0.dtd"
   xmlns="http://www.w3.org/2000/svg"
   xmlns:svg="http://www.w3.org/2000/svg">
  <defs
     id="defs10" />
  <sodipodi:namedview
     id="namedview8"
     pagecolor="#505050"
     bordercolor="#ffffff"
     borderopacity="1"
     inkscape:showpageshadow="0"
     inkscape:pageopacity="0"
     inkscape:pagecheckerboard="1"
     inkscape:deskcolor="#505050"
     showgrid="false"
     inkscape:zoom="4.5067313"
     inkscape:cx="66.123311"
     inkscape:cy="41.271597"
     inkscape:window-width="1955"
     inkscape:window-height="1334"
     inkscape:window-x="481"
     inkscape:window-y="108"
     inkscape:window-maximized="0"
     inkscape:current-layer="svg6" />
  <path
     fill="#1a1f71"
     d="M 61.457141,24.900691 40.371425,75.356745 H 26.485712 L 15.942856,34.940417 C 15.42857,32.623553 14.914284,31.593842 12.857142,30.564121 9.7714277,28.762122 4.6285711,27.217545 0,26.187825 L 0.25714284,24.643258 H 22.62857 c 2.82857,0 5.4,1.801999 5.914285,5.148585 l 5.4,29.346881 13.62857,-34.495466 h 13.885716 z m 54.257149,33.9806 c 0,-13.386292 -18.514292,-14.15859 -18.257156,-20.079443 0,-1.801999 1.799998,-3.861431 5.657146,-4.118863 1.80001,-0.257433 6.94286,-0.514856 12.60001,2.059432 l 2.31428,-10.812015 c -3.08571,-1.029711 -7.19999,-2.059432 -12.08571,-2.059432 -12.857149,0 -22.114294,6.950584 -22.114294,16.732877 0,7.208007 6.428573,11.326871 11.57143,13.901158 5.142864,2.574287 6.685724,4.118864 6.685724,6.178295 0,3.346574 -4.114293,4.891147 -7.714304,4.891147 -6.685703,0 -10.285709,-1.802002 -13.371422,-3.089147 L 78.68571,73.554744 c 3.085713,1.287141 8.742857,2.574286 14.657136,2.574286 13.371434,0 22.371444,-6.693151 22.371444,-17.247739 m 34.2,16.475454 H 162 L 151.45714,24.900691 H 140.4 c -2.57142,0 -4.62856,1.544566 -5.65714,3.603998 l -19.8,46.852056 h 13.62857 L 131.4,67.891307 h 16.7143 z M 135.25714,57.594148 142.2,38.544416 146.05714,57.594148 Z M 80.228566,24.900691 69.428565,75.356745 H 56.314279 L 67.11428,24.643258 h 13.114286 z"
     id="path2"
     style="stroke-width:2.57285" />
</svg>
