<?xml version="1.0" encoding="UTF-8"?>
<svg width="70px" height="44px" viewBox="0 0 70 44" version="1.1" xmlns="http://www.w3.org/2000/svg" xmlns:xlink="http://www.w3.org/1999/xlink">
    <!-- Generator: Sketch 44.1 (41455) - http://www.bohemiancoding.com/sketch -->
    <title>visa-electron</title>
    <desc>Created with Sketch.</desc>
    <defs></defs>
    <g id="Figurehead" stroke="none" stroke-width="1" fill="none" fill-rule="evenodd">
        <g id="acceptance-logos" transform="translate(-141.000000, -114.000000)" fill-rule="nonzero">
            <g id="visa-electron" transform="translate(141.000000, 114.000000)">
                <polygon id="path4147" fill="#FFFFFF" transform="translate(35.000000, 21.940299) scale(-1, 1) rotate(-180.000000) translate(-35.000000, -21.940299) " points="70 0 0 0 0 43.880597 70 43.880597"></polygon>
                <polygon id="path4149" fill="#F7B600" transform="translate(34.477612, 40.223881) scale(-1, 1) rotate(-180.000000) translate(-34.477612, -40.223881) " points="1.04477612 42.8358209 67.9104478 42.8358209 67.9104478 37.6119403 1.04477612 37.6119403"></polygon>
                <polygon id="path4151" fill="#1A1F71" transform="translate(34.477612, 3.656716) scale(-1, 1) rotate(-180.000000) translate(-34.477612, -3.656716) " points="1.04477612 1.04477612 67.9104478 1.04477612 67.9104478 6.26865672 1.04477612 6.26865672"></polygon>
                <g id="g4153" transform="translate(34.358209, 23.522388) scale(-1, 1) rotate(-180.000000) translate(-34.358209, -23.522388) translate(8.358209, 11.522388)" fill="#1A1F71">
                    <g id="g4155-Clipped">
                        <g id="g4155">
                            <g id="g4161" transform="translate(0.144398, 6.578967)">
                                <path d="M25.1520177,15.9618574 L21.7777778,0.345733831 L17.6967017,0.345733831 L21.0709416,15.9618574 L25.1520177,15.9618574 L25.1520177,15.9618574 Z M42.3198821,5.87843284 L44.4687673,11.7428192 L45.7031509,5.87843284 L42.3198821,5.87843284 L42.3198821,5.87843284 Z M46.8752994,0.345733831 L50.6484245,0.345733831 L47.3518979,15.9618574 L43.8706007,15.9618574 C43.0854063,15.9618574 42.4256495,15.5107753 42.1328542,14.817073 L36.0093053,0.345733831 L40.2948222,0.345733831 L41.1448314,2.67839967 L46.3806431,2.67839967 L46.8752994,0.345733831 L46.8752994,0.345733831 Z M36.2221301,5.44427032 C36.2392206,9.56498342 30.4668325,9.79355721 30.5045605,11.6349171 C30.5184264,12.1945398 31.0569375,12.7905556 32.2358577,12.9428317 C32.819836,13.0175332 34.4331122,13.0772305 36.260503,12.2437023 L36.9754008,15.5570647 C35.9935047,15.9085448 34.7300995,16.2469362 33.1584209,16.2469362 C29.1241017,16.2469362 26.2861157,14.1256053 26.2635434,11.08551 C26.2371015,8.83680348 28.2905381,7.58347844 29.8348074,6.83454809 C31.4255113,6.06965589 31.9588631,5.57803068 31.9514465,4.89454395 C31.9401603,3.84680763 30.6812696,3.38295605 29.5107334,3.36571725 C27.4582642,3.3334743 26.2683803,3.91480514 25.3193753,4.35247927 L24.5786807,0.929299337 C25.53349,0.496094527 27.2931638,0.11971393 29.1157177,0.100559701 C33.4044592,0.100559701 36.2095541,2.19762852 36.2221301,5.44427032 L36.2221301,5.44427032 Z M19.3202967,15.9618574 L12.7085406,0.345733831 L8.39464713,0.345733831 L5.14068546,12.8087521 C4.94366132,13.574602 4.77211166,13.8564884 4.17168786,14.1801949 C3.19043671,14.7078939 1.57006633,15.2014345 0.145752718,15.5085406 L0.241846324,15.9618574 L7.18670536,15.9618574 C8.07057306,15.9618574 8.8664087,15.3792496 9.06859222,14.3704602 L10.7879584,5.33317579 L15.0325226,15.9618574 L19.3202967,15.9618574 L19.3202967,15.9618574 Z" id="path4163"></path>
                            </g>
                            <g id="g4165" transform="translate(28.262000, 0.391576)">
                                <polygon id="path4167" points="2.25723236 2.23466003 0.59913396 2.23466003 0.59913396 0.706791045 2.45393403 0.706791045 2.45393403 0.247408789 0.0403077207 0.247408789 0.0403077207 4.48623964 2.35880781 4.48623964 2.35880781 4.02685738 0.59913396 4.02685738 0.59913396 2.68765755 2.25723236 2.68765755"></polygon>
                            </g>
                            <polygon id="path4169" points="31.5725539 5.10396352 32.1313801 5.10396352 32.1313801 0.639112769 31.5725539 0.639112769"></polygon>
                            <g id="g4171" transform="translate(32.922605, 0.541203)">
                                <path d="M2.25723236,1.91542289 C2.26368159,2.26115672 2.11115718,2.80832919 1.48235673,2.80832919 C0.910632025,2.80832919 0.669108163,2.2988267 0.624608439,1.91542289 L2.25723236,1.91542289 L2.25723236,1.91542289 Z M0.618481666,1.51924959 C0.631057675,0.770638474 1.10765616,0.462574627 1.67260918,0.462574627 C2.07310669,0.462574627 2.32075732,0.531849088 2.5242307,0.619639303 L2.62580615,0.223466003 C2.42878202,0.135675788 2.08600516,0.0287313433 1.5965082,0.0287313433 C0.650405381,0.0287313433 0.085129906,0.651243781 0.085129906,1.56936982 C0.085129906,2.48749585 0.631057675,3.20450249 1.52685646,3.20450249 C2.53680671,3.20450249 2.79735581,2.33649668 2.79735581,1.77687396 C2.79735581,1.66386401 2.79090658,1.5821393 2.77800811,1.51924959 L0.618481666,1.51924959 L0.618481666,1.51924959 Z" id="path4173"></path>
                            </g>
                            <g id="g4175" transform="translate(36.181532, 0.426788)">
                                <path d="M2.57969412,0.319237148 C2.43361894,0.249962687 2.10954487,0.143018242 1.69679381,0.143018242 C0.769393772,0.143018242 0.166067809,0.76553068 0.166067809,1.6964262 C0.166067809,2.63338723 0.813571034,3.31878939 1.81739451,3.31878939 C2.14759536,3.31878939 2.43974572,3.23738391 2.59227013,3.15533997 L2.46554266,2.73394693 C2.33172102,2.80322139 2.12212088,2.8788806 1.81739451,2.8788806 C1.11217063,2.8788806 0.731343284,2.35692786 0.731343284,1.72771144 C0.731343284,1.0234743 1.18859407,0.589631012 1.79836926,0.589631012 C2.1159941,0.589631012 2.32559425,0.664970978 2.48424544,0.734245439 L2.57969412,0.319237148 L2.57969412,0.319237148 Z" id="path4177"></path>
                            </g>
                            <g id="g4179" transform="translate(39.039285, 0.262189)">
                                <path d="M1.28984706,4.15008292 L1.28984706,3.42062604 L2.0898747,3.42062604 L2.0898747,2.99955224 L1.28984706,2.99955224 L1.28984706,1.35803483 C1.28984706,0.98037728 1.39787175,0.766807629 1.70904736,0.766807629 C1.86124931,0.766807629 1.95057122,0.779257877 2.03312143,0.804796849 L2.05859591,0.383084577 C1.95057122,0.345414594 1.77902156,0.30774461 1.56297218,0.30774461 C1.30242307,0.30774461 1.09282292,0.395854063 0.959646213,0.540149254 C0.807121798,0.710302653 0.743596831,0.98037728 0.743596831,1.3388806 L0.743596831,2.99955224 L0.266998342,2.99955224 L0.266998342,3.42062604 L0.743596831,3.42062604 L0.743596831,3.9866335 L1.28984706,4.15008292 L1.28984706,4.15008292 Z" id="path4181"></path>
                            </g>
                            <g id="g4183" transform="translate(41.587507, 0.498489)">
                                <path d="M0.322461765,2.23466003 C0.322461765,2.59316335 0.315690068,2.9012272 0.296987286,3.18439055 L0.786161784,3.18439055 L0.811636263,2.5807131 L0.830339046,2.5807131 C0.970287452,2.98933665 1.31306431,3.24728027 1.68776488,3.24728027 C1.74516307,3.24728027 1.7896628,3.24089552 1.84061176,3.23483002 L1.84061176,2.71255804 C1.78321356,2.72532753 1.72646029,2.72532753 1.64971439,2.72532753 C1.25631104,2.72532753 0.976414225,2.43609867 0.900313249,2.02077114 C0.88773724,1.94543118 0.881288004,1.85125622 0.881288004,1.76282753 L0.881288004,0.140464345 L0.322461765,0.140464345 L0.322461765,2.23466003 L0.322461765,2.23466003 Z" id="path4185"></path>
                            </g>
                            <g id="g4187" transform="translate(43.785826, 0.558346)">
                                <path d="M0.64492353,1.59618574 C0.64492353,0.929618574 1.02607334,0.426500829 1.57232357,0.426500829 C2.10599779,0.426500829 2.50585038,0.923553068 2.50585038,1.60895522 C2.50585038,2.12452322 2.24562373,2.77257463 1.58489958,2.77257463 C0.930947116,2.77257463 0.64492353,2.16857794 0.64492353,1.59618574 M3.07789755,1.62779022 C3.07789755,0.502160033 2.28367422,0.0114925373 1.54684909,0.0114925373 C0.721024507,0.0114925373 0.0735212825,0.615489221 0.0735212825,1.57735075 C0.0735212825,2.58997098 0.752948222,3.18726368 1.59779805,3.18726368 C2.48069836,3.18726368 3.07789755,2.552301 3.07789755,1.62779022" id="path4189"></path>
                            </g>
                            <g id="g4191" transform="translate(47.397784, 0.624460)">
                                <path d="M0.322461765,2.23466003 C0.322461765,2.55517413 0.315690068,2.806733 0.296987286,3.05829187 L0.792288557,3.05829187 L0.824212272,2.55517413 L0.836788281,2.55517413 C0.989312696,2.83833748 1.34498802,3.12118159 1.85318776,3.12118159 C2.27851483,3.12118159 2.93923899,2.86962272 2.93923899,1.82603648 L2.93923899,0.0146849088 L2.38041275,0.0146849088 L2.38041275,1.76921227 C2.38041275,2.25956053 2.19628708,2.66850332 1.6690621,2.66850332 C1.30693753,2.66850332 1.02091395,2.4105597 0.919660954,2.10249585 C0.893864013,2.03322139 0.881288004,1.93904643 0.881288004,1.84455224 L0.881288004,0.0146849088 L0.322461765,0.0146849088 L0.322461765,2.23466003 L0.322461765,2.23466003 Z" id="path4193"></path>
                            </g>
                        </g>
                    </g>
                </g>
            </g>
        </g>
    </g>
</svg>