<?xml version="1.0" encoding="UTF-8" standalone="no"?>
<svg
   width="162"
   height="100"
   viewBox="0 0 162 100"
   version="1.1"
   id="svg442"
   sodipodi:docname="maestro.svg"
   inkscape:version="1.2.2 (b0a84865, 2022-12-01)"
   xmlns:inkscape="http://www.inkscape.org/namespaces/inkscape"
   xmlns:sodipodi="http://sodipodi.sourceforge.net/DTD/sodipodi-0.dtd"
   xmlns="http://www.w3.org/2000/svg"
   xmlns:svg="http://www.w3.org/2000/svg">
  <defs
     id="defs446" />
  <sodipodi:namedview
     id="namedview444"
     pagecolor="#505050"
     bordercolor="#ffffff"
     borderopacity="1"
     inkscape:showpageshadow="0"
     inkscape:pageopacity="0"
     inkscape:pagecheckerboard="1"
     inkscape:deskcolor="#505050"
     showgrid="false"
     inkscape:zoom="5.6302482"
     inkscape:cx="72.110497"
     inkscape:cy="38.186593"
     inkscape:window-width="1955"
     inkscape:window-height="1334"
     inkscape:window-x="481"
     inkscape:window-y="108"
     inkscape:window-maximized="0"
     inkscape:current-layer="svg442" />
  <rect
     x="59.098351"
     y="10.689998"
     width="43.805508"
     height="78.619995"
     style="display:inline;fill:#7375cf;stroke-width:1.38976"
     id="rect428"
     inkscape:label="rect428" />
  <path
     d="m 61.879934,50 a 49.976731,49.913403 0 0 1 19.121313,-39.31 50.063438,50 0 1 0 0,78.620001 A 49.976939,49.913611 0 0 1 61.879934,50 Z"
     style="display:inline;fill:#eb001b;stroke-width:1.38976"
     id="path430" />
  <path
     d="m 157.22366,80.983056 v -1.609584 h 0.64986 v -0.327917 h -1.65501 v 0.327917 h 0.65012 v 1.609584 z m 3.21312,0 v -1.940695 h -0.50732 l -0.58352,1.33486 -0.58366,-1.33486 h -0.50758 v 1.940695 h 0.35823 v -1.463891 l 0.54722,1.262084 h 0.37144 l 0.54722,-1.265278 v 1.467085 z"
     style="display:inline;fill:#00a2e5;stroke-width:1.38976"
     id="path432" />
  <path
     d="M 162,50 A 50.061588,49.998153 0 0 1 81.001247,89.310001 50.070641,50.007195 0 0 0 81.001247,10.69 50.061588,49.998153 0 0 1 162,50 Z"
     style="display:inline;fill:#00a2e5;stroke-width:1.38976"
     id="path434" />
</svg>
