<svg xmlns="http://www.w3.org/2000/svg" viewBox="0 0 500 500"><g class="back-flip"><path fill="#25752C" d="M199.9 12.8L367 136.5c20.8 15.4 23 45.6 4.8 63.9L245.7 227 .5 241.8 127.6 27.4c15-25.3 48.6-32.1 72.3-14.6z"/><path fill="#1C6021" d="M.8 242.1l244.6-15.4 129.9-30.4c14.3-18.4 11.1-45.6-8.3-59.9L232.8 37.1l-232 205z"/></g><linearGradient id="a" gradientUnits="userSpaceOnUse" x1="142.566" y1="397.91" x2="359.406" y2="88.647"><stop offset="0" stop-color="#1D8042"/><stop offset="1" stop-color="#2E8F29"/></linearGradient><path fill="url(#a)" d="M486.6 265l-232 232L0 242.3 305.9 16.2C332-3.2 369.1 4.3 385.7 32.3l107.4 181.3c9.8 16.6 7.2 37.8-6.5 51.4z"/></svg>