<?xml version="1.0" encoding="UTF-8" standalone="no"?>
<svg
   viewBox="0 0 162 100"
   version="1.1"
   id="svg301"
   sodipodi:docname="mastercard.svg"
   width="162"
   height="100"
   inkscape:version="1.2.2 (b0a84865, 2022-12-01)"
   xmlns:inkscape="http://www.inkscape.org/namespaces/inkscape"
   xmlns:sodipodi="http://sodipodi.sourceforge.net/DTD/sodipodi-0.dtd"
   xmlns="http://www.w3.org/2000/svg"
   xmlns:svg="http://www.w3.org/2000/svg">
  <defs
     id="defs305" />
  <sodipodi:namedview
     id="namedview303"
     pagecolor="#505050"
     bordercolor="#ffffff"
     borderopacity="1"
     inkscape:showpageshadow="0"
     inkscape:pageopacity="0"
     inkscape:pagecheckerboard="1"
     inkscape:deskcolor="#505050"
     showgrid="false"
     inkscape:zoom="6.2868854"
     inkscape:cx="71.418513"
     inkscape:cy="68.55541"
     inkscape:window-width="1955"
     inkscape:window-height="1334"
     inkscape:window-x="481"
     inkscape:window-y="108"
     inkscape:window-maximized="0"
     inkscape:current-layer="svg301" />
  <rect
     fill="#ff5f00"
     x="56.910759"
     y="10.69118"
     width="48.198925"
     height="78.609535"
     id="rect293"
     style="stroke-width:1.38962" />
  <path
     fill="#eb001b"
     d="m 61.875278,50.00289 a 49.978922,49.906849 0 0 1 19.121039,-39.297824 50.062359,49.990166 0 1 0 0,78.609536 A 49.978922,49.906849 0 0 1 61.875278,50.00289 Z"
     id="path295"
     style="stroke-width:1.38962" />
  <path
     fill="#f79e1b"
     d="m 157.21626,80.982908 v -1.610795 h 0.69531 v -0.333268 h -1.65484 v 0.333268 h 0.6536 v 1.610795 z m 3.21234,0 v -1.944063 h -0.50063 l -0.58406,1.388616 -0.58406,-1.388616 h -0.50062 v 1.944063 h 0.36156 v -1.471934 l 0.54234,1.263642 h 0.37547 l 0.54234,-1.263642 v 1.471934 z"
     id="path297"
     style="stroke-width:1.38962" />
  <path
     fill="#f79e1b"
     d="m 162,50.00289 a 50.062359,49.990166 0 0 1 -81.003683,39.297826 50.062359,49.990166 0 0 0 0,-78.609537 A 50.062359,49.990166 0 0 1 162,49.989005 Z"
     id="path299"
     style="stroke-width:1.38962" />
</svg>
