<?xml version="1.0" encoding="UTF-8" standalone="no"?>
<svg
   xmlns:dc="http://purl.org/dc/elements/1.1/"
   xmlns:cc="http://creativecommons.org/ns#"
   xmlns:rdf="http://www.w3.org/1999/02/22-rdf-syntax-ns#"
   xmlns:svg="http://www.w3.org/2000/svg"
   xmlns="http://www.w3.org/2000/svg"
   xmlns:sodipodi="http://sodipodi.sourceforge.net/DTD/sodipodi-0.dtd"
   xmlns:inkscape="http://www.inkscape.org/namespaces/inkscape"
   version="1.1"
   id="svg2"
   xml:space="preserve"
   width="264"
   height="264"
   viewBox="0 0 264 264"
   sodipodi:docname="visa-secure_blu_RGB.ai"><metadata
     id="metadata8"><rdf:RDF><cc:Work
         rdf:about=""><dc:format>image/svg+xml</dc:format><dc:type
           rdf:resource="http://purl.org/dc/dcmitype/StillImage" /></cc:Work></rdf:RDF></metadata><defs
     id="defs6"><clipPath
       clipPathUnits="userSpaceOnUse"
       id="clipPath22"><path
         d="M 0,198 H 198 V 0 H 0 Z"
         id="path20" /></clipPath></defs><sodipodi:namedview
     pagecolor="#ffffff"
     bordercolor="#666666"
     borderopacity="1"
     objecttolerance="10"
     gridtolerance="10"
     guidetolerance="10"
     inkscape:pageopacity="0"
     inkscape:pageshadow="2"
     inkscape:window-width="640"
     inkscape:window-height="480"
     id="namedview4" /><g
     id="g10"
     inkscape:groupmode="layer"
     inkscape:label="visa-secure_blu_RGB"
     transform="matrix(1.3333333,0,0,-1.3333333,0,264)"><path
       d="M 0,0.002 H 197.998 V 198 H 0 Z"
       style="fill:#ffffff;fill-opacity:1;fill-rule:nonzero;stroke:none"
       id="path12" /><path
       d="M 0,0.002 H 197.998 V 99.001 L 0,99.001 Z"
       style="fill:#1a1f71;fill-opacity:1;fill-rule:nonzero;stroke:none"
       id="path14" /><g
       id="g16"><g
         id="g18"
         clip-path="url(#clipPath22)"><g
           id="g24"
           transform="translate(94.7119,170.3188)"><path
             d="M 0,0 -9.51,-44.461 H -21.013 L -11.502,0 Z m 48.392,-28.709 6.054,16.696 3.484,-16.696 z M 61.23,-44.461 H 71.866 L 62.574,0 h -9.811 c -2.211,0 -4.075,-1.282 -4.9,-3.259 L 30.604,-44.461 h 12.08 l 2.398,6.64 h 14.755 z m -30.027,14.515 c 0.05,11.734 -16.221,12.384 -16.112,17.627 0.035,1.593 1.555,3.29 4.877,3.724 1.647,0.212 6.192,0.384 11.344,-1.99 l 2.015,9.432 c -2.767,1.001 -6.328,1.965 -10.759,1.965 -11.371,0 -19.37,-6.04 -19.434,-14.696 -0.073,-6.401 5.714,-9.97 10.065,-12.102 4.486,-2.179 5.989,-3.576 5.967,-5.523 -0.031,-2.983 -3.577,-4.304 -6.879,-4.354 -5.786,-0.09 -9.14,1.564 -11.813,2.81 L -1.614,-42.8 c 2.692,-1.232 7.652,-2.304 12.788,-2.359 12.089,0 19.993,5.969 20.029,15.213 M -16.436,0 -35.073,-44.461 H -47.23 l -9.172,35.483 c -0.556,2.182 -1.041,2.984 -2.732,3.906 -2.766,1.502 -7.332,2.907 -11.347,3.781 L -70.209,0 h 19.572 c 2.493,0 4.736,-1.659 5.307,-4.531 l 4.845,-25.73 L -28.52,0 Z"
             style="fill:#1a1f71;fill-opacity:1;fill-rule:nonzero;stroke:none"
             id="path26" /></g><g
           id="g28"
           transform="translate(46.1255,44.1699)"><path
             d="m 0,0 c 1.299,-0.767 3.331,-1.433 5.43,-1.433 2.598,0 4.063,1.233 4.063,3.065 0,1.699 -1.132,2.698 -3.964,3.73 -3.73,1.3 -6.095,3.298 -6.095,6.496 0,3.698 3.064,6.462 7.961,6.462 2.432,0 4.197,-0.533 5.363,-1.099 L 11.792,13.89 c -0.833,0.433 -2.398,1.066 -4.497,1.066 -2.598,0 -3.697,-1.366 -3.697,-2.698 0,-1.733 1.298,-2.531 4.297,-3.664 3.897,-1.499 5.762,-3.465 5.762,-6.662 0,-3.631 -2.731,-6.729 -8.494,-6.729 -2.398,0 -4.863,0.666 -6.096,1.399 z"
             style="fill:#ffffff;fill-opacity:1;fill-rule:nonzero;stroke:none"
             id="path30" /></g><g
           id="g32"
           transform="translate(75.708,49.666)"><path
             d="M 0,0 H -8.461 V -6.596 H 1 V -9.96 H -12.558 V 12.491 H 0.5 V 9.127 H -8.461 V 3.331 l 8.461,0 z"
             style="fill:#ffffff;fill-opacity:1;fill-rule:nonzero;stroke:none"
             id="path34" /></g><g
           id="g36"
           transform="translate(96.064,40.3721)"><path
             d="m 0,0 c -0.966,-0.466 -3.098,-0.999 -5.829,-0.999 -7.129,0 -11.459,4.464 -11.459,11.292 0,7.394 5.163,11.825 12.025,11.825 2.698,0 4.597,-0.533 5.43,-0.966 l -0.866,-3.264 c -1.066,0.466 -2.565,0.866 -4.397,0.866 -4.564,0 -7.862,-2.865 -7.862,-8.261 0,-4.931 2.865,-8.061 7.828,-8.061 1.632,0 3.365,0.333 4.464,0.799 z"
             style="fill:#ffffff;fill-opacity:1;fill-rule:nonzero;stroke:none"
             id="path38" /></g><g
           id="g40"
           transform="translate(103.2959,62.1572)"><path
             d="m 0,0 v -13.091 c 0,-4.397 1.832,-6.429 4.597,-6.429 2.965,0 4.73,2.032 4.73,6.429 V 0 h 4.097 v -12.824 c 0,-6.929 -3.564,-9.993 -8.96,-9.993 -5.197,0 -8.561,2.897 -8.561,9.959 l 0,12.858 z"
             style="fill:#ffffff;fill-opacity:1;fill-rule:nonzero;stroke:none"
             id="path42" /></g><g
           id="g44"
           transform="translate(125.1504,51.9307)"><path
             d="m 0,0 h 2.432 c 2.765,0 4.464,1.466 4.464,3.697 0,2.432 -1.699,3.598 -4.364,3.598 -1.3,0 -2.132,-0.1 -2.532,-0.2 z m -4.062,9.894 c 1.564,0.299 3.83,0.499 6.195,0.499 3.23,0 5.396,-0.533 6.928,-1.799 1.232,-1.032 1.931,-2.598 1.931,-4.531 0,-2.897 -1.965,-4.862 -4.096,-5.595 v -0.1 c 1.631,-0.599 2.598,-2.165 3.131,-4.33 0.733,-2.799 1.332,-5.396 1.766,-6.263 H 7.596 c -0.334,0.666 -0.901,2.498 -1.5,5.296 -0.666,2.932 -1.699,3.865 -4.03,3.931 H 0 v -9.227 h -4.062 z"
             style="fill:#ffffff;fill-opacity:1;fill-rule:nonzero;stroke:none"
             id="path46" /></g><g
           id="g48"
           transform="translate(152.2686,49.666)"><path
             d="m 0,0 h -8.461 v -6.596 h 9.46 V -9.96 H -12.558 V 12.491 H 0.499 V 9.127 h -8.96 V 3.331 l 8.461,0 z"
             style="fill:#ffffff;fill-opacity:1;fill-rule:nonzero;stroke:none"
             id="path50" /></g></g></g></g></svg>
